<?xml version="1.0" encoding="UTF-8"?>
<svg width="512px" height="512px" viewBox="0 0 512 512" version="1.1" xmlns="http://www.w3.org/2000/svg" xmlns:xlink="http://www.w3.org/1999/xlink" xmlns:sketch="http://www.bohemiancoding.com/sketch/ns">
    <title>blank</title>
    <description>Created with Sketch (http://www.bohemiancoding.com/sketch)</description>
    <defs></defs>
    <g id="Page-1" stroke="none" stroke-width="1" fill="none" fill-rule="evenodd" sketch:type="MSPage">
        <g id="blank" sketch:type="MSLayerGroup">
            <path d="M0,0 L512,0 L512,512 L0,512 L0,0 Z" id="Shape" fill="#FFFFFF" sketch:type="MSShapeGroup"></path>
            <g id="Group" transform="translate(27.000000, 27.000000)" fill="#000000" sketch:type="MSShapeGroup">
                <path d="M457.5,401.02 C457.5,415.999427 451.549446,430.365336 440.957391,440.957391 C430.365336,451.549446 415.999427,457.5 401.02,457.5 L57.02,457.5 C42.0336434,457.510614 27.6574561,451.564745 17.0567486,440.97154 C6.45604112,430.378335 0.499996242,416.00636 0.5,401.02 L0.5,57.02 C0.48938643,42.0336434 6.43525497,27.6574561 17.0284602,17.0567486 C27.6216654,6.45604112 41.9936396,0.499996242 56.98,0.5 L400.98,0.5 C415.966357,0.48938643 430.342544,6.43525497 440.943251,17.0284602 C451.543959,27.6216654 457.500004,41.9936396 457.5,56.98 L457.5,401.02 Z M437.5,57.02 C437.510616,47.3379738 433.671886,38.0488637 426.829408,31.1988829 C419.98693,24.3489021 410.702032,20.4999942 401.02,20.5 L57.02,20.5 C47.3379738,20.4893837 38.0488637,24.3281141 31.1988829,31.1705922 C24.3489021,38.0130703 20.4999942,47.297968 20.5,56.98 L20.5,400.98 C20.4893837,410.662026 24.3281141,419.951136 31.1705922,426.801117 C38.0130703,433.651098 47.297968,437.500006 56.98,437.5 L400.98,437.5 C410.662026,437.510616 419.951136,433.671886 426.801117,426.829408 C433.651098,419.98693 437.500006,410.702032 437.5,401.02 L437.5,57.02 Z" id="Shape"></path>
            </g>
        </g>
    </g>
</svg>